<svg width="17" height="18" viewBox="0 0 17 18" xmlns="http://www.w3.org/2000/svg">
    <path d="M9.031 4.342c-3.622 0-6.715 2.203-7.969 5.313 1.254 3.11 4.347 5.312 7.97 5.312 3.621 0 6.715-2.202 7.968-5.312-1.253-3.11-4.347-5.313-7.969-5.313zm0 8.855c-2 0-3.622-1.587-3.622-3.542 0-1.955 1.623-3.542 3.622-3.542 2 0 3.622 1.587 3.622 3.542 0 1.955-1.622 3.542-3.622 3.542zm0-5.667c-1.202 0-2.173.95-2.173 2.125 0 1.176.97 2.125 2.173 2.125s2.174-.95 2.174-2.125c0-1.176-.971-2.125-2.174-2.125z" fill="#4D4D4D" fill-opacity=".831" fill-rule="nonzero" opacity=".66"/>
</svg>
